<?xml version="1.0" encoding="UTF-8"?>
<svg width="239px" height="40px" viewBox="0 0 239 40" version="1.1" xmlns="http://www.w3.org/2000/svg" xmlns:xlink="http://www.w3.org/1999/xlink">
    <title>Group</title>
    <g id="Page-1" stroke="none" stroke-width="1" fill="none" fill-rule="evenodd">
        <g id="Artboard" transform="translate(-183.000000, -163.000000)" fill-rule="nonzero">
            <g id="Group" transform="translate(183.626500, 163.801000)">
                <path d="M10.179,21.199 L10.179,3.625 L16.762,3.625 L16.762,0.493 L4.26325641e-14,0.493 L4.26325641e-14,3.625 L6.554,3.625 L6.554,21.199 L10.179,21.199 Z M28.485,21.692 C30.0316667,21.692 31.4188333,21.4068333 32.6465,20.8365 C33.8741667,20.2661667 34.9133333,19.488 35.764,18.502 C36.6146667,17.516 37.2671667,16.3656667 37.7215,15.051 C38.1758333,13.7363333 38.403,12.3346667 38.403,10.846 C38.403,9.37666667 38.1758333,7.98466667 37.7215,6.67 C37.2671667,5.35533333 36.6146667,4.205 35.764,3.219 C34.9133333,2.233 33.8741667,1.45 32.6465,0.87 C31.4188333,0.29 30.0316667,0 28.485,0 C26.9383333,0 25.5511667,0.29 24.3235,0.87 C23.0958333,1.45 22.0566667,2.233 21.206,3.219 C20.3553333,4.205 19.7028333,5.35533333 19.2485,6.67 C18.7941667,7.98466667 18.567,9.37666667 18.567,10.846 C18.567,12.3346667 18.7941667,13.7363333 19.2485,15.051 C19.7028333,16.3656667 20.3553333,17.516 21.206,18.502 C22.0566667,19.488 23.0958333,20.2661667 24.3235,20.8365 C25.5511667,21.4068333 26.9383333,21.692 28.485,21.692 Z M28.485,18.734 C27.383,18.734 26.4308333,18.5116667 25.6285,18.067 C24.8261667,17.6223333 24.1736667,17.0278333 23.671,16.2835 C23.1683333,15.5391667 22.7961667,14.6933333 22.5545,13.746 C22.3128333,12.7986667 22.192,11.832 22.192,10.846 C22.192,9.86 22.3128333,8.89333333 22.5545,7.946 C22.7961667,6.99866667 23.1683333,6.15283333 23.671,5.4085 C24.1736667,4.66416667 24.8261667,4.06966667 25.6285,3.625 C26.4308333,3.18033333 27.383,2.958 28.485,2.958 C29.587,2.958 30.5391667,3.18033333 31.3415,3.625 C32.1438333,4.06966667 32.7963333,4.66416667 33.299,5.4085 C33.8016667,6.15283333 34.1738333,6.99866667 34.4155,7.946 C34.6571667,8.89333333 34.778,9.86 34.778,10.846 C34.778,11.832 34.6571667,12.7986667 34.4155,13.746 C34.1738333,14.6933333 33.8016667,15.5391667 33.299,16.2835 C32.7963333,17.0278333 32.1438333,17.6223333 31.3415,18.067 C30.5391667,18.5116667 29.587,18.734 28.485,18.734 Z M45.834,21.199 L45.834,13.253 L51.344,13.253 C52.8133333,13.253 54.012,13.0451667 54.94,12.6295 C55.868,12.2138333 56.5833333,11.687 57.086,11.049 C57.5886667,10.411 57.9318333,9.71983333 58.1155,8.9755 C58.2991667,8.23116667 58.391,7.54 58.391,6.902 C58.391,6.264 58.2991667,5.568 58.1155,4.814 C57.9318333,4.06 57.5886667,3.364 57.086,2.726 C56.5833333,2.088 55.868,1.55633333 54.94,1.131 C54.012,0.705666667 52.8133333,0.493 51.344,0.493 L51.344,0.493 L42.209,0.493 L42.209,21.199 L45.834,21.199 Z M51.141,10.295 L45.834,10.295 L45.834,3.451 L51.199,3.451 C51.6823333,3.451 52.1366667,3.49933333 52.562,3.596 C52.9873333,3.69266667 53.3643333,3.8715 53.693,4.1325 C54.0216667,4.3935 54.2826667,4.74633333 54.476,5.191 C54.6693333,5.63566667 54.766,6.19633333 54.766,6.873 C54.766,7.53033333 54.6548333,8.0765 54.4325,8.5115 C54.2101667,8.9465 53.9201667,9.2945 53.5625,9.5555 C53.2048333,9.8165 52.8133333,10.005 52.388,10.121 C51.9626667,10.237 51.547,10.295 51.141,10.295 L51.141,10.295 Z M70.723,21.605 C71.941,21.605 73.0478333,21.4116667 74.0435,21.025 C75.0391667,20.6383333 75.9043333,20.0873333 76.639,19.372 C77.3736667,18.6566667 77.973,17.7866667 78.437,16.762 C78.901,15.7373333 79.2006667,14.587 79.336,13.311 L77.364,13.311 C77.2673333,14.239 77.045,15.1041667 76.697,15.9065 C76.349,16.7088333 75.8946667,17.4096667 75.334,18.009 C74.7733333,18.6083333 74.1063333,19.082 73.333,19.43 C72.5596667,19.778 71.6896667,19.952 70.723,19.952 C69.3503333,19.952 68.171,19.691 67.185,19.169 C66.199,18.647 65.3918333,17.9558333 64.7635,17.0955 C64.1351667,16.2351667 63.6711667,15.2588333 63.3715,14.1665 C63.0718333,13.0741667 62.922,11.9673333 62.922,10.846 C62.922,9.70533333 63.0718333,8.59366667 63.3715,7.511 C63.6711667,6.42833333 64.1351667,5.45683333 64.7635,4.5965 C65.3918333,3.73616667 66.199,3.045 67.185,2.523 C68.171,2.001 69.3503333,1.74 70.723,1.74 C71.477,1.74 72.1971667,1.85116667 72.8835,2.0735 C73.5698333,2.29583333 74.1981667,2.61966667 74.7685,3.045 C75.3388333,3.47033333 75.8221667,3.99716667 76.2185,4.6255 C76.6148333,5.25383333 76.9,5.96433333 77.074,6.757 L79.046,6.757 C78.9106667,5.67433333 78.5868333,4.71733333 78.0745,3.886 C77.5621667,3.05466667 76.9241667,2.35383333 76.1605,1.7835 C75.3968333,1.21316667 74.5461667,0.783 73.6085,0.493 C72.6708333,0.203 71.709,0.058 70.723,0.058 C69.099,0.058 67.6731667,0.352833333 66.4455,0.9425 C65.2178333,1.53216667 64.198,2.32483333 63.386,3.3205 C62.574,4.31616667 61.965,5.46166667 61.559,6.757 C61.153,8.05233333 60.95,9.41533333 60.95,10.846 C60.95,12.2766667 61.153,13.6396667 61.559,14.935 C61.965,16.2303333 62.574,17.371 63.386,18.357 C64.198,19.343 65.2178333,20.1308333 66.4455,20.7205 C67.6731667,21.3101667 69.099,21.605 70.723,21.605 Z M91.523,21.605 C93.147,21.605 94.568,21.3101667 95.786,20.7205 C97.004,20.1308333 98.019,19.343 98.831,18.357 C99.643,17.371 100.252,16.2303333 100.658,14.935 C101.064,13.6396667 101.267,12.2766667 101.267,10.846 C101.267,9.41533333 101.064,8.05233333 100.658,6.757 C100.252,5.46166667 99.643,4.31616667 98.831,3.3205 C98.019,2.32483333 97.004,1.53216667 95.786,0.9425 C94.568,0.352833333 93.147,0.058 91.523,0.058 C89.899,0.058 88.4731667,0.352833333 87.2455,0.9425 C86.0178333,1.53216667 84.998,2.32483333 84.186,3.3205 C83.374,4.31616667 82.765,5.46166667 82.359,6.757 C81.953,8.05233333 81.75,9.41533333 81.75,10.846 C81.75,12.2766667 81.953,13.6396667 82.359,14.935 C82.765,16.2303333 83.374,17.371 84.186,18.357 C84.998,19.343 86.0178333,20.1308333 87.2455,20.7205 C88.4731667,21.3101667 89.899,21.605 91.523,21.605 Z M91.523,19.952 C90.1503333,19.952 88.971,19.691 87.985,19.169 C86.999,18.647 86.1918333,17.9558333 85.5635,17.0955 C84.9351667,16.2351667 84.4711667,15.2588333 84.1715,14.1665 C83.8718333,13.0741667 83.722,11.9673333 83.722,10.846 C83.722,9.70533333 83.8718333,8.59366667 84.1715,7.511 C84.4711667,6.42833333 84.9351667,5.45683333 85.5635,4.5965 C86.1918333,3.73616667 86.999,3.045 87.985,2.523 C88.971,2.001 90.1503333,1.74 91.523,1.74 C92.8956667,1.74 94.0701667,2.001 95.0465,2.523 C96.0228333,3.045 96.8251667,3.73616667 97.4535,4.5965 C98.0818333,5.45683333 98.5458333,6.42833333 98.8455,7.511 C99.1451667,8.59366667 99.295,9.70533333 99.295,10.846 C99.295,11.9673333 99.1451667,13.0741667 98.8455,14.1665 C98.5458333,15.2588333 98.0818333,16.2351667 97.4535,17.0955 C96.8251667,17.9558333 96.0228333,18.647 95.0465,19.169 C94.0701667,19.691 92.8956667,19.952 91.523,19.952 Z M118.413,21.199 L118.413,19.517 L106.813,19.517 L106.813,0.493 L104.841,0.493 L104.841,21.199 L118.413,21.199 Z M134.486,21.199 L134.486,19.517 L122.886,19.517 L122.886,0.493 L120.914,0.493 L120.914,21.199 L134.486,21.199 Z M151.429,21.199 L151.429,19.517 L138.959,19.517 L138.959,11.339 L150.501,11.339 L150.501,9.657 L138.959,9.657 L138.959,2.175 L151.284,2.175 L151.284,0.493 L136.987,0.493 L136.987,21.199 L151.429,21.199 Z M163.471,21.605 C164.689,21.605 165.795833,21.4116667 166.7915,21.025 C167.787167,20.6383333 168.652333,20.0873333 169.387,19.372 C170.121667,18.6566667 170.721,17.7866667 171.185,16.762 C171.649,15.7373333 171.948667,14.587 172.084,13.311 L170.112,13.311 C170.015333,14.239 169.793,15.1041667 169.445,15.9065 C169.097,16.7088333 168.642667,17.4096667 168.082,18.009 C167.521333,18.6083333 166.854333,19.082 166.081,19.43 C165.307667,19.778 164.437667,19.952 163.471,19.952 C162.098333,19.952 160.919,19.691 159.933,19.169 C158.947,18.647 158.139833,17.9558333 157.5115,17.0955 C156.883167,16.2351667 156.419167,15.2588333 156.1195,14.1665 C155.819833,13.0741667 155.67,11.9673333 155.67,10.846 C155.67,9.70533333 155.819833,8.59366667 156.1195,7.511 C156.419167,6.42833333 156.883167,5.45683333 157.5115,4.5965 C158.139833,3.73616667 158.947,3.045 159.933,2.523 C160.919,2.001 162.098333,1.74 163.471,1.74 C164.225,1.74 164.945167,1.85116667 165.6315,2.0735 C166.317833,2.29583333 166.946167,2.61966667 167.5165,3.045 C168.086833,3.47033333 168.570167,3.99716667 168.9665,4.6255 C169.362833,5.25383333 169.648,5.96433333 169.822,6.757 L171.794,6.757 C171.658667,5.67433333 171.334833,4.71733333 170.8225,3.886 C170.310167,3.05466667 169.672167,2.35383333 168.9085,1.7835 C168.144833,1.21316667 167.294167,0.783 166.3565,0.493 C165.418833,0.203 164.457,0.058 163.471,0.058 C161.847,0.058 160.421167,0.352833333 159.1935,0.9425 C157.965833,1.53216667 156.946,2.32483333 156.134,3.3205 C155.322,4.31616667 154.713,5.46166667 154.307,6.757 C153.901,8.05233333 153.698,9.41533333 153.698,10.846 C153.698,12.2766667 153.901,13.6396667 154.307,14.935 C154.713,16.2303333 155.322,17.371 156.134,18.357 C156.946,19.343 157.965833,20.1308333 159.1935,20.7205 C160.421167,21.3101667 161.847,21.605 163.471,21.605 Z M182.56,21.199 L182.56,2.175 L189.781,2.175 L189.781,0.493 L173.396,0.493 L173.396,2.175 L180.588,2.175 L180.588,21.199 L182.56,21.199 Z M194.341,21.199 L194.341,0.493 L192.369,0.493 L192.369,21.199 L194.341,21.199 Z M207.833,21.605 C209.457,21.605 210.878,21.3101667 212.096,20.7205 C213.314,20.1308333 214.329,19.343 215.141,18.357 C215.953,17.371 216.562,16.2303333 216.968,14.935 C217.374,13.6396667 217.577,12.2766667 217.577,10.846 C217.577,9.41533333 217.374,8.05233333 216.968,6.757 C216.562,5.46166667 215.953,4.31616667 215.141,3.3205 C214.329,2.32483333 213.314,1.53216667 212.096,0.9425 C210.878,0.352833333 209.457,0.058 207.833,0.058 C206.209,0.058 204.783167,0.352833333 203.5555,0.9425 C202.327833,1.53216667 201.308,2.32483333 200.496,3.3205 C199.684,4.31616667 199.075,5.46166667 198.669,6.757 C198.263,8.05233333 198.06,9.41533333 198.06,10.846 C198.06,12.2766667 198.263,13.6396667 198.669,14.935 C199.075,16.2303333 199.684,17.371 200.496,18.357 C201.308,19.343 202.327833,20.1308333 203.5555,20.7205 C204.783167,21.3101667 206.209,21.605 207.833,21.605 Z M207.833,19.952 C206.460333,19.952 205.281,19.691 204.295,19.169 C203.309,18.647 202.501833,17.9558333 201.8735,17.0955 C201.245167,16.2351667 200.781167,15.2588333 200.4815,14.1665 C200.181833,13.0741667 200.032,11.9673333 200.032,10.846 C200.032,9.70533333 200.181833,8.59366667 200.4815,7.511 C200.781167,6.42833333 201.245167,5.45683333 201.8735,4.5965 C202.501833,3.73616667 203.309,3.045 204.295,2.523 C205.281,2.001 206.460333,1.74 207.833,1.74 C209.205667,1.74 210.380167,2.001 211.3565,2.523 C212.332833,3.045 213.135167,3.73616667 213.7635,4.5965 C214.391833,5.45683333 214.855833,6.42833333 215.1555,7.511 C215.455167,8.59366667 215.605,9.70533333 215.605,10.846 C215.605,11.9673333 215.455167,13.0741667 215.1555,14.1665 C214.855833,15.2588333 214.391833,16.2351667 213.7635,17.0955 C213.135167,17.9558333 212.332833,18.647 211.3565,19.169 C210.380167,19.691 209.205667,19.952 207.833,19.952 Z M223.094,21.199 L223.094,3.683 L223.152,3.683 L235.216,21.199 L237.42,21.199 L237.42,0.493 L235.448,0.493 L235.448,18.009 L235.39,18.009 L223.326,0.493 L221.122,0.493 L221.122,21.199 L223.094,21.199 Z" id="TOPCOLLECTION" fill="#000000"></path>
                <path d="M39.2602759,38.199 L41.4052759,30.399 L41.4312759,30.399 L43.5502759,38.199 L44.8372759,38.199 L47.3202759,28.917 L46.0852759,28.917 L44.2002759,36.639 L44.1742759,36.639 L42.1202759,28.917 L40.7812759,28.917 L38.7012759,36.639 L38.6752759,36.639 L36.8552759,28.917 L35.5942759,28.917 L37.9732759,38.199 L39.2602759,38.199 Z M49.6374138,38.199 L49.6374138,34.403 C49.6374138,34.0996667 49.6785805,33.8201667 49.7609138,33.5645 C49.8432471,33.3088333 49.9667471,33.0856667 50.1314138,32.895 C50.2960805,32.7043333 50.5019138,32.557 50.7489138,32.453 C50.9959138,32.349 51.2884138,32.297 51.6264138,32.297 C52.0510805,32.297 52.3847471,32.4183333 52.6274138,32.661 C52.8700805,32.9036667 52.9914138,33.233 52.9914138,33.649 L52.9914138,38.199 L54.0964138,38.199 L54.0964138,33.779 C54.0964138,33.415 54.0595805,33.0835 53.9859138,32.7845 C53.9122471,32.4855 53.7844138,32.2276667 53.6024138,32.011 C53.4204138,31.7943333 53.1820805,31.6253333 52.8874138,31.504 C52.5927471,31.3826667 52.2244138,31.322 51.7824138,31.322 C51.5830805,31.322 51.3772471,31.3436667 51.1649138,31.387 C50.9525805,31.4303333 50.7489138,31.4975 50.5539138,31.5885 C50.3589138,31.6795 50.1834138,31.7965 50.0274138,31.9395 C49.8714138,32.0825 49.7500805,32.258 49.6634138,32.466 L49.6374138,32.466 L49.6374138,28.917 L48.5324138,28.917 L48.5324138,38.199 L49.6374138,38.199 Z M58.8835517,38.342 C59.4208851,38.342 59.8910517,38.2531667 60.2940517,38.0755 C60.6970517,37.8978333 61.0372184,37.6508333 61.3145517,37.3345 C61.5918851,37.0181667 61.7998851,36.6476667 61.9385517,36.223 C62.0772184,35.7983333 62.1465517,35.339 62.1465517,34.845 C62.1465517,34.351 62.0772184,33.8895 61.9385517,33.4605 C61.7998851,33.0315 61.5918851,32.6588333 61.3145517,32.3425 C61.0372184,32.0261667 60.6970517,31.777 60.2940517,31.595 C59.8910517,31.413 59.4208851,31.322 58.8835517,31.322 C58.3548851,31.322 57.8868851,31.413 57.4795517,31.595 C57.0722184,31.777 56.7298851,32.0261667 56.4525517,32.3425 C56.1752184,32.6588333 55.9672184,33.0315 55.8285517,33.4605 C55.6898851,33.8895 55.6205517,34.351 55.6205517,34.845 C55.6205517,35.339 55.6898851,35.7983333 55.8285517,36.223 C55.9672184,36.6476667 56.1752184,37.0181667 56.4525517,37.3345 C56.7298851,37.6508333 57.0722184,37.8978333 57.4795517,38.0755 C57.8868851,38.2531667 58.3548851,38.342 58.8835517,38.342 Z M58.8835517,37.38 C58.5975517,37.38 58.3267184,37.3236667 58.0710517,37.211 C57.8153851,37.0983333 57.5922184,36.9358333 57.4015517,36.7235 C57.2108851,36.5111667 57.0613851,36.2468333 56.9530517,35.9305 C56.8447184,35.6141667 56.7905517,35.2523333 56.7905517,34.845 C56.7905517,34.4376667 56.8447184,34.0758333 56.9530517,33.7595 C57.0613851,33.4431667 57.2108851,33.1766667 57.4015517,32.96 C57.5922184,32.7433333 57.8153851,32.5786667 58.0710517,32.466 C58.3267184,32.3533333 58.5975517,32.297 58.8835517,32.297 C59.1695517,32.297 59.4403851,32.3533333 59.6960517,32.466 C59.9517184,32.5786667 60.1748851,32.7433333 60.3655517,32.96 C60.5562184,33.1766667 60.7057184,33.4431667 60.8140517,33.7595 C60.9223851,34.0758333 60.9765517,34.4376667 60.9765517,34.845 C60.9765517,35.2523333 60.9223851,35.6141667 60.8140517,35.9305 C60.7057184,36.2468333 60.5562184,36.5111667 60.3655517,36.7235 C60.1748851,36.9358333 59.9517184,37.0983333 59.6960517,37.211 C59.4403851,37.3236667 59.1695517,37.38 58.8835517,37.38 Z M64.8406897,38.199 L64.8406897,28.917 L63.7356897,28.917 L63.7356897,38.199 L64.8406897,38.199 Z M69.6408276,38.342 C70.4034943,38.342 71.0361609,38.1513333 71.5388276,37.77 C72.0414943,37.3886667 72.3664943,36.821 72.5138276,36.067 L71.4218276,36.067 C71.3264943,36.509 71.1293276,36.8383333 70.8303276,37.055 C70.5313276,37.2716667 70.1478276,37.38 69.6798276,37.38 C69.3158276,37.38 68.9994943,37.3193333 68.7308276,37.198 C68.4621609,37.0766667 68.2411609,36.9141667 68.0678276,36.7105 C67.8944943,36.5068333 67.7688276,36.2728333 67.6908276,36.0085 C67.6128276,35.7441667 67.5781609,35.4646667 67.5868276,35.17 L72.6178276,35.17 C72.6351609,34.7626667 72.5983276,34.3336667 72.5073276,33.883 C72.4163276,33.4323333 72.2516609,33.0163333 72.0133276,32.635 C71.7749943,32.2536667 71.4586609,31.9395 71.0643276,31.6925 C70.6699943,31.4455 70.1738276,31.322 69.5758276,31.322 C69.1164943,31.322 68.6939943,31.4086667 68.3083276,31.582 C67.9226609,31.7553333 67.5889943,31.998 67.3073276,32.31 C67.0256609,32.622 66.8068276,32.9903333 66.6508276,33.415 C66.4948276,33.8396667 66.4168276,34.3076667 66.4168276,34.819 C66.4341609,35.3303333 66.5099943,35.8026667 66.6443276,36.236 C66.7786609,36.6693333 66.9801609,37.042 67.2488276,37.354 C67.5174943,37.666 67.8489943,37.9086667 68.2433276,38.082 C68.6376609,38.2553333 69.1034943,38.342 69.6408276,38.342 Z M71.4478276,34.195 L67.5868276,34.195 C67.6041609,33.935 67.6604943,33.6901667 67.7558276,33.4605 C67.8511609,33.2308333 67.9811609,33.0293333 68.1458276,32.856 C68.3104943,32.6826667 68.5076609,32.5461667 68.7373276,32.4465 C68.9669943,32.3468333 69.2248276,32.297 69.5108276,32.297 C69.7881609,32.297 70.0416609,32.3468333 70.2713276,32.4465 C70.5009943,32.5461667 70.7003276,32.6805 70.8693276,32.8495 C71.0383276,33.0185 71.1726609,33.22 71.2723276,33.454 C71.3719943,33.688 71.4304943,33.935 71.4478276,34.195 Z M76.4039655,38.342 C76.7419655,38.342 77.0821322,38.3095 77.4244655,38.2445 C77.7667989,38.1795 78.0744655,38.0646667 78.3474655,37.9 C78.6204655,37.7353333 78.8414655,37.5186667 79.0104655,37.25 C79.1794655,36.9813333 79.2639655,36.6433333 79.2639655,36.236 C79.2639655,35.9153333 79.2011322,35.6466667 79.0754655,35.43 C78.9497989,35.2133333 78.7851322,35.0335 78.5814655,34.8905 C78.3777989,34.7475 78.1437989,34.6326667 77.8794655,34.546 C77.6151322,34.4593333 77.3442989,34.3856667 77.0669655,34.325 C76.8069655,34.2643333 76.5469655,34.2058333 76.2869655,34.1495 C76.0269655,34.0931667 75.7929655,34.0238333 75.5849655,33.9415 C75.3769655,33.8591667 75.2057989,33.7551667 75.0714655,33.6295 C74.9371322,33.5038333 74.8699655,33.3456667 74.8699655,33.155 C74.8699655,32.9816667 74.9132989,32.8408333 74.9999655,32.7325 C75.0866322,32.6241667 75.1992989,32.5375 75.3379655,32.4725 C75.4766322,32.4075 75.6304655,32.362 75.7994655,32.336 C75.9684655,32.31 76.1352989,32.297 76.2999655,32.297 C76.4819655,32.297 76.6617989,32.3165 76.8394655,32.3555 C77.0171322,32.3945 77.1796322,32.4573333 77.3269655,32.544 C77.4742989,32.6306667 77.5956322,32.7455 77.6909655,32.8885 C77.7862989,33.0315 77.8426322,33.2113333 77.8599655,33.428 L78.9649655,33.428 C78.9389655,33.0206667 78.8522989,32.6805 78.7049655,32.4075 C78.5576322,32.1345 78.3604655,31.9178333 78.1134655,31.7575 C77.8664655,31.5971667 77.5826322,31.4845 77.2619655,31.4195 C76.9412989,31.3545 76.5902989,31.322 76.2089655,31.322 C75.9142989,31.322 75.6174655,31.3588333 75.3184655,31.4325 C75.0194655,31.5061667 74.7507989,31.6188333 74.5124655,31.7705 C74.2741322,31.9221667 74.0791322,32.1193333 73.9274655,32.362 C73.7757989,32.6046667 73.6999655,32.895 73.6999655,33.233 C73.6999655,33.6663333 73.8082989,34.0043333 74.0249655,34.247 C74.2416322,34.4896667 74.5124655,34.6781667 74.8374655,34.8125 C75.1624655,34.9468333 75.5156322,35.0508333 75.8969655,35.1245 C76.2782989,35.1981667 76.6314655,35.2805 76.9564655,35.3715 C77.2814655,35.4625 77.5522989,35.5816667 77.7689655,35.729 C77.9856322,35.8763333 78.0939655,36.093 78.0939655,36.379 C78.0939655,36.587 78.0419655,36.7581667 77.9379655,36.8925 C77.8339655,37.0268333 77.7017989,37.1286667 77.5414655,37.198 C77.3811322,37.2673333 77.2056322,37.315 77.0149655,37.341 C76.8242989,37.367 76.6422989,37.38 76.4689655,37.38 C76.2436322,37.38 76.0247989,37.3583333 75.8124655,37.315 C75.6001322,37.2716667 75.4094655,37.2001667 75.2404655,37.1005 C75.0714655,37.0008333 74.9349655,36.8665 74.8309655,36.6975 C74.7269655,36.5285 74.6706322,36.3226667 74.6619655,36.08 L73.5569655,36.08 C73.5742989,36.496 73.6609655,36.8491667 73.8169655,37.1395 C73.9729655,37.4298333 74.1809655,37.6638333 74.4409655,37.8415 C74.7009655,38.0191667 74.9999655,38.147 75.3379655,38.225 C75.6759655,38.303 76.0312989,38.342 76.4039655,38.342 Z M85.8711034,38.342 C86.2091034,38.342 86.4734368,38.2856667 86.6641034,38.173 L86.6641034,38.173 L86.6641034,37.315 C86.5341034,37.3583333 86.4214368,37.38 86.3261034,37.38 C86.1527701,37.38 86.0509368,37.3193333 86.0206034,37.198 C85.9902701,37.0766667 85.9751034,36.886 85.9751034,36.626 L85.9751034,36.626 L85.9751034,33.168 C85.9751034,32.778 85.9014368,32.4616667 85.7541034,32.219 C85.6067701,31.9763333 85.4117701,31.7878333 85.1691034,31.6535 C84.9264368,31.5191667 84.6556034,31.4303333 84.3566034,31.387 C84.0576034,31.3436667 83.7564368,31.322 83.4531034,31.322 C83.0717701,31.322 82.7142701,31.361 82.3806034,31.439 C82.0469368,31.517 81.7501034,31.6448333 81.4901034,31.8225 C81.2301034,32.0001667 81.0221034,32.232 80.8661034,32.518 C80.7101034,32.804 80.6234368,33.155 80.6061034,33.571 L80.6061034,33.571 L81.7111034,33.571 C81.7371034,33.077 81.9061034,32.7411667 82.2181034,32.5635 C82.5301034,32.3858333 82.9201034,32.297 83.3881034,32.297 C83.5614368,32.297 83.7369368,32.31 83.9146034,32.336 C84.0922701,32.362 84.2526034,32.414 84.3956034,32.492 C84.5386034,32.57 84.6556034,32.6826667 84.7466034,32.83 C84.8376034,32.9773333 84.8831034,33.1723333 84.8831034,33.415 C84.8831034,33.623 84.8224368,33.7811667 84.7011034,33.8895 C84.5797701,33.9978333 84.4151034,34.0801667 84.2071034,34.1365 C83.9991034,34.1928333 83.7586034,34.2361667 83.4856034,34.2665 C83.2126034,34.2968333 82.9244368,34.3423333 82.6211034,34.403 C82.3351034,34.455 82.0556034,34.52 81.7826034,34.598 C81.5096034,34.676 81.2669368,34.7908333 81.0546034,34.9425 C80.8422701,35.0941667 80.6711034,35.2913333 80.5411034,35.534 C80.4111034,35.7766667 80.3461034,36.0886667 80.3461034,36.47 C80.3461034,36.808 80.4046034,37.0961667 80.5216034,37.3345 C80.6386034,37.5728333 80.7967701,37.7656667 80.9961034,37.913 C81.1954368,38.0603333 81.4316034,38.1686667 81.7046034,38.238 C81.9776034,38.3073333 82.2657701,38.342 82.5691034,38.342 C83.0371034,38.342 83.4726034,38.2618333 83.8756034,38.1015 C84.2786034,37.9411667 84.6317701,37.679 84.9351034,37.315 C84.9351034,37.679 85.0196034,37.9411667 85.1886034,38.1015 C85.3576034,38.2618333 85.5851034,38.342 85.8711034,38.342 Z M82.8161034,37.38 C82.6427701,37.38 82.4781034,37.3626667 82.3221034,37.328 C82.1661034,37.2933333 82.0296034,37.237 81.9126034,37.159 C81.7956034,37.081 81.7002701,36.9791667 81.6266034,36.8535 C81.5529368,36.7278333 81.5161034,36.574 81.5161034,36.392 C81.5161034,36.1146667 81.5789368,35.8958333 81.7046034,35.7355 C81.8302701,35.5751667 81.9927701,35.4516667 82.1921034,35.365 C82.3914368,35.2783333 82.6167701,35.2155 82.8681034,35.1765 C83.1194368,35.1375 83.3686034,35.1028333 83.6156034,35.0725 C83.8626034,35.0421667 84.0987701,35.0031667 84.3241034,34.9555 C84.5494368,34.9078333 84.7314368,34.832 84.8701034,34.728 L84.8701034,34.728 L84.8701034,35.859 C84.8701034,36.015 84.8311034,36.1818333 84.7531034,36.3595 C84.6751034,36.5371667 84.5537701,36.7018333 84.3891034,36.8535 C84.2244368,37.0051667 84.0121034,37.1308333 83.7521034,37.2305 C83.4921034,37.3301667 83.1801034,37.38 82.8161034,37.38 Z M89.0852414,38.199 L89.0852414,28.917 L87.9802414,28.917 L87.9802414,38.199 L89.0852414,38.199 Z M93.8853793,38.342 C94.648046,38.342 95.2807126,38.1513333 95.7833793,37.77 C96.286046,37.3886667 96.611046,36.821 96.7583793,36.067 L95.6663793,36.067 C95.571046,36.509 95.3738793,36.8383333 95.0748793,37.055 C94.7758793,37.2716667 94.3923793,37.38 93.9243793,37.38 C93.5603793,37.38 93.244046,37.3193333 92.9753793,37.198 C92.7067126,37.0766667 92.4857126,36.9141667 92.3123793,36.7105 C92.139046,36.5068333 92.0133793,36.2728333 91.9353793,36.0085 C91.8573793,35.7441667 91.8227126,35.4646667 91.8313793,35.17 L96.8623793,35.17 C96.8797126,34.7626667 96.8428793,34.3336667 96.7518793,33.883 C96.6608793,33.4323333 96.4962126,33.0163333 96.2578793,32.635 C96.019546,32.2536667 95.7032126,31.9395 95.3088793,31.6925 C94.914546,31.4455 94.4183793,31.322 93.8203793,31.322 C93.361046,31.322 92.938546,31.4086667 92.5528793,31.582 C92.1672126,31.7553333 91.833546,31.998 91.5518793,32.31 C91.2702126,32.622 91.0513793,32.9903333 90.8953793,33.415 C90.7393793,33.8396667 90.6613793,34.3076667 90.6613793,34.819 C90.6787126,35.3303333 90.754546,35.8026667 90.8888793,36.236 C91.0232126,36.6693333 91.2247126,37.042 91.4933793,37.354 C91.762046,37.666 92.093546,37.9086667 92.4878793,38.082 C92.8822126,38.2553333 93.348046,38.342 93.8853793,38.342 Z M95.6923793,34.195 L91.8313793,34.195 C91.8487126,33.935 91.905046,33.6901667 92.0003793,33.4605 C92.0957126,33.2308333 92.2257126,33.0293333 92.3903793,32.856 C92.555046,32.6826667 92.7522126,32.5461667 92.9818793,32.4465 C93.211546,32.3468333 93.4693793,32.297 93.7553793,32.297 C94.0327126,32.297 94.2862126,32.3468333 94.5158793,32.4465 C94.745546,32.5461667 94.9448793,32.6805 95.1138793,32.8495 C95.2828793,33.0185 95.4172126,33.22 95.5168793,33.454 C95.616546,33.688 95.675046,33.935 95.6923793,34.195 Z M103.485655,38.199 L103.485655,34.403 L106.319655,34.403 C107.255655,34.4116667 107.964155,34.1733333 108.445155,33.688 C108.926155,33.2026667 109.166655,32.5266667 109.166655,31.66 C109.166655,30.7933333 108.926155,30.1195 108.445155,29.6385 C107.964155,29.1575 107.255655,28.917 106.319655,28.917 L102.250655,28.917 L102.250655,38.199 L103.485655,38.199 Z M105.903655,33.363 L103.485655,33.363 L103.485655,29.957 L105.903655,29.957 C106.605655,29.957 107.119155,30.1021667 107.444155,30.3925 C107.769155,30.6828333 107.931655,31.1053333 107.931655,31.66 C107.931655,32.2146667 107.769155,32.6393333 107.444155,32.934 C107.119155,33.2286667 106.605655,33.3716667 105.903655,33.363 Z M111.782793,38.199 L111.782793,35.209 C111.782793,34.7756667 111.826126,34.3921667 111.912793,34.0585 C111.99946,33.7248333 112.138126,33.441 112.328793,33.207 C112.51946,32.973 112.770793,32.7953333 113.082793,32.674 C113.394793,32.5526667 113.771793,32.492 114.213793,32.492 L114.213793,31.322 C113.615793,31.3046667 113.121793,31.426 112.731793,31.686 C112.341793,31.946 112.01246,32.349 111.743793,32.895 L111.717793,32.895 L111.717793,31.478 L110.677793,31.478 L110.677793,38.199 L111.782793,38.199 Z M117.895931,38.342 C118.658598,38.342 119.291264,38.1513333 119.793931,37.77 C120.296598,37.3886667 120.621598,36.821 120.768931,36.067 L119.676931,36.067 C119.581598,36.509 119.384431,36.8383333 119.085431,37.055 C118.786431,37.2716667 118.402931,37.38 117.934931,37.38 C117.570931,37.38 117.254598,37.3193333 116.985931,37.198 C116.717264,37.0766667 116.496264,36.9141667 116.322931,36.7105 C116.149598,36.5068333 116.023931,36.2728333 115.945931,36.0085 C115.867931,35.7441667 115.833264,35.4646667 115.841931,35.17 L120.872931,35.17 C120.890264,34.7626667 120.853431,34.3336667 120.762431,33.883 C120.671431,33.4323333 120.506764,33.0163333 120.268431,32.635 C120.030098,32.2536667 119.713764,31.9395 119.319431,31.6925 C118.925098,31.4455 118.428931,31.322 117.830931,31.322 C117.371598,31.322 116.949098,31.4086667 116.563431,31.582 C116.177764,31.7553333 115.844098,31.998 115.562431,32.31 C115.280764,32.622 115.061931,32.9903333 114.905931,33.415 C114.749931,33.8396667 114.671931,34.3076667 114.671931,34.819 C114.689264,35.3303333 114.765098,35.8026667 114.899431,36.236 C115.033764,36.6693333 115.235264,37.042 115.503931,37.354 C115.772598,37.666 116.104098,37.9086667 116.498431,38.082 C116.892764,38.2553333 117.358598,38.342 117.895931,38.342 Z M119.702931,34.195 L115.841931,34.195 C115.859264,33.935 115.915598,33.6901667 116.010931,33.4605 C116.106264,33.2308333 116.236264,33.0293333 116.400931,32.856 C116.565598,32.6826667 116.762764,32.5461667 116.992431,32.4465 C117.222098,32.3468333 117.479931,32.297 117.765931,32.297 C118.043264,32.297 118.296764,32.3468333 118.526431,32.4465 C118.756098,32.5461667 118.955431,32.6805 119.124431,32.8495 C119.293431,33.0185 119.427764,33.22 119.527431,33.454 C119.627098,33.688 119.685598,33.935 119.702931,34.195 Z M123.346069,38.199 L123.346069,34.013 C123.346069,33.883 123.378569,33.7205 123.443569,33.5255 C123.508569,33.3305 123.612569,33.142 123.755569,32.96 C123.898569,32.778 124.084902,32.622 124.314569,32.492 C124.544236,32.362 124.819402,32.297 125.140069,32.297 C125.391402,32.297 125.597236,32.3338333 125.757569,32.4075 C125.917902,32.4811667 126.045736,32.5851667 126.141069,32.7195 C126.236402,32.8538333 126.303569,33.012 126.342569,33.194 C126.381569,33.376 126.401069,33.5753333 126.401069,33.792 L126.401069,38.199 L127.506069,38.199 L127.506069,34.013 C127.506069,33.493 127.662069,33.077 127.974069,32.765 C128.286069,32.453 128.715069,32.297 129.261069,32.297 C129.529736,32.297 129.748569,32.336 129.917569,32.414 C130.086569,32.492 130.218736,32.5981667 130.314069,32.7325 C130.409402,32.8668333 130.474402,33.025 130.509069,33.207 C130.543736,33.389 130.561069,33.584 130.561069,33.792 L130.561069,38.199 L131.666069,38.199 L131.666069,33.272 C131.666069,32.9253333 131.611902,32.6285 131.503569,32.3815 C131.395236,32.1345 131.243569,31.933 131.048569,31.777 C130.853569,31.621 130.619569,31.5061667 130.346569,31.4325 C130.073569,31.3588333 129.768069,31.322 129.430069,31.322 C128.988069,31.322 128.582902,31.4216667 128.214569,31.621 C127.846236,31.8203333 127.549402,32.102 127.324069,32.466 C127.185402,32.05 126.947069,31.7553333 126.609069,31.582 C126.271069,31.4086667 125.894069,31.322 125.478069,31.322 C124.533402,31.322 123.809736,31.7033333 123.307069,32.466 L123.281069,32.466 L123.281069,31.478 L122.241069,31.478 L122.241069,38.199 L123.346069,38.199 Z M134.724207,30.269 L134.724207,28.917 L133.619207,28.917 L133.619207,30.269 L134.724207,30.269 Z M134.724207,38.199 L134.724207,31.478 L133.619207,31.478 L133.619207,38.199 L134.724207,38.199 Z M138.978345,38.342 C139.472345,38.342 139.901345,38.2445 140.265345,38.0495 C140.629345,37.8545 140.928345,37.549 141.162345,37.133 L141.188345,37.133 L141.188345,38.199 L142.228345,38.199 L142.228345,31.478 L141.123345,31.478 L141.123345,35.274 C141.123345,35.5773333 141.082178,35.8568333 140.999845,36.1125 C140.917511,36.3681667 140.794011,36.5913333 140.629345,36.782 C140.464678,36.9726667 140.258845,37.12 140.011845,37.224 C139.764845,37.328 139.472345,37.38 139.134345,37.38 C138.709678,37.38 138.376011,37.2586667 138.133345,37.016 C137.890678,36.7733333 137.769345,36.444 137.769345,36.028 L137.769345,31.478 L136.664345,31.478 L136.664345,35.898 C136.664345,36.262 136.701178,36.5935 136.774845,36.8925 C136.848511,37.1915 136.976345,37.4493333 137.158345,37.666 C137.340345,37.8826667 137.578678,38.0495 137.873345,38.1665 C138.168011,38.2835 138.536345,38.342 138.978345,38.342 Z M145.221483,38.199 L145.221483,34.013 C145.221483,33.883 145.253983,33.7205 145.318983,33.5255 C145.383983,33.3305 145.487983,33.142 145.630983,32.96 C145.773983,32.778 145.960316,32.622 146.189983,32.492 C146.419649,32.362 146.694816,32.297 147.015483,32.297 C147.266816,32.297 147.472649,32.3338333 147.632983,32.4075 C147.793316,32.4811667 147.921149,32.5851667 148.016483,32.7195 C148.111816,32.8538333 148.178983,33.012 148.217983,33.194 C148.256983,33.376 148.276483,33.5753333 148.276483,33.792 L148.276483,38.199 L149.381483,38.199 L149.381483,34.013 C149.381483,33.493 149.537483,33.077 149.849483,32.765 C150.161483,32.453 150.590483,32.297 151.136483,32.297 C151.405149,32.297 151.623983,32.336 151.792983,32.414 C151.961983,32.492 152.094149,32.5981667 152.189483,32.7325 C152.284816,32.8668333 152.349816,33.025 152.384483,33.207 C152.419149,33.389 152.436483,33.584 152.436483,33.792 L152.436483,38.199 L153.541483,38.199 L153.541483,33.272 C153.541483,32.9253333 153.487316,32.6285 153.378983,32.3815 C153.270649,32.1345 153.118983,31.933 152.923983,31.777 C152.728983,31.621 152.494983,31.5061667 152.221983,31.4325 C151.948983,31.3588333 151.643483,31.322 151.305483,31.322 C150.863483,31.322 150.458316,31.4216667 150.089983,31.621 C149.721649,31.8203333 149.424816,32.102 149.199483,32.466 C149.060816,32.05 148.822483,31.7553333 148.484483,31.582 C148.146483,31.4086667 147.769483,31.322 147.353483,31.322 C146.408816,31.322 145.685149,31.7033333 145.182483,32.466 L145.156483,32.466 L145.156483,31.478 L144.116483,31.478 L144.116483,38.199 L145.221483,38.199 Z M162.751759,38.407 C163.176425,38.407 163.603259,38.3571667 164.032259,38.2575 C164.461259,38.1578333 164.849092,37.9975 165.195759,37.7765 C165.542425,37.5555 165.826259,37.2695 166.047259,36.9185 C166.268259,36.5675 166.378759,36.145 166.378759,35.651 C166.378759,35.1916667 166.294259,34.8103333 166.125259,34.507 C165.956259,34.2036667 165.730925,33.9523333 165.449259,33.753 C165.167592,33.5536667 164.849092,33.3955 164.493759,33.2785 C164.138425,33.1615 163.776592,33.0596667 163.408259,32.973 C163.039925,32.8863333 162.678092,32.8061667 162.322759,32.7325 C161.967425,32.6588333 161.648925,32.5656667 161.367259,32.453 C161.085592,32.3403333 160.860259,32.1951667 160.691259,32.0175 C160.522259,31.8398333 160.437759,31.608 160.437759,31.322 C160.437759,31.0186667 160.496259,30.7651667 160.613259,30.5615 C160.730259,30.3578333 160.886259,30.1953333 161.081259,30.074 C161.276259,29.9526667 161.499425,29.866 161.750759,29.814 C162.002092,29.762 162.257759,29.736 162.517759,29.736 C163.159092,29.736 163.685592,29.8855 164.097259,30.1845 C164.508925,30.4835 164.749425,30.9666667 164.818759,31.634 L165.988759,31.634 C165.971425,31.1226667 165.873925,30.6828333 165.696259,30.3145 C165.518592,29.9461667 165.275925,29.6406667 164.968259,29.398 C164.660592,29.1553333 164.303092,28.9776667 163.895759,28.865 C163.488425,28.7523333 163.046425,28.696 162.569759,28.696 C162.145092,28.696 161.731259,28.7501667 161.328259,28.8585 C160.925259,28.9668333 160.565592,29.1315 160.249259,29.3525 C159.932925,29.5735 159.679425,29.8551667 159.488759,30.1975 C159.298092,30.5398333 159.202759,30.945 159.202759,31.413 C159.202759,31.8376667 159.287259,32.1908333 159.456259,32.4725 C159.625259,32.7541667 159.850592,32.9838333 160.132259,33.1615 C160.413925,33.3391667 160.732425,33.4821667 161.087759,33.5905 C161.443092,33.6988333 161.804925,33.7941667 162.173259,33.8765 C162.541592,33.9588333 162.903425,34.039 163.258759,34.117 C163.614092,34.195 163.932592,34.2968333 164.214259,34.4225 C164.495925,34.5481667 164.721259,34.7106667 164.890259,34.91 C165.059259,35.1093333 165.143759,35.3693333 165.143759,35.69 C165.143759,36.028 165.074425,36.3053333 164.935759,36.522 C164.797092,36.7386667 164.615092,36.9098333 164.389759,37.0355 C164.164425,37.1611667 163.910925,37.25 163.629259,37.302 C163.347592,37.354 163.068092,37.38 162.790759,37.38 C162.444092,37.38 162.106092,37.3366667 161.776759,37.25 C161.447425,37.1633333 161.159259,37.029 160.912259,36.847 C160.665259,36.665 160.465925,36.4331667 160.314259,36.1515 C160.162592,35.8698333 160.086759,35.534 160.086759,35.144 L158.916759,35.144 C158.916759,35.7073333 159.018592,36.1948333 159.222259,36.6065 C159.425925,37.0181667 159.703259,37.3561667 160.054259,37.6205 C160.405259,37.8848333 160.812592,38.082 161.276259,38.212 C161.739925,38.342 162.231759,38.407 162.751759,38.407 Z M170.788897,38.199 L170.788897,37.224 L170.281897,37.224 C170.108563,37.224 169.96773,37.2175 169.859397,37.2045 C169.751063,37.1915 169.666563,37.1633333 169.605897,37.12 C169.54523,37.0766667 169.504063,37.016 169.482397,36.938 C169.46073,36.86 169.449897,36.756 169.449897,36.626 L169.449897,32.453 L170.788897,32.453 L170.788897,31.478 L169.449897,31.478 L169.449897,29.463 L168.344897,29.463 L168.344897,31.478 L167.200897,31.478 L167.200897,32.453 L168.344897,32.453 L168.344897,36.73 C168.344897,37.042 168.37523,37.2933333 168.435897,37.484 C168.496563,37.6746667 168.58973,37.822 168.715397,37.926 C168.841063,38.03 169.00573,38.1015 169.209397,38.1405 C169.413063,38.1795 169.657897,38.199 169.943897,38.199 L170.788897,38.199 Z M177.396034,38.342 C177.734034,38.342 177.998368,38.2856667 178.189034,38.173 L178.189034,38.173 L178.189034,37.315 C178.059034,37.3583333 177.946368,37.38 177.851034,37.38 C177.677701,37.38 177.575868,37.3193333 177.545534,37.198 C177.515201,37.0766667 177.500034,36.886 177.500034,36.626 L177.500034,36.626 L177.500034,33.168 C177.500034,32.778 177.426368,32.4616667 177.279034,32.219 C177.131701,31.9763333 176.936701,31.7878333 176.694034,31.6535 C176.451368,31.5191667 176.180534,31.4303333 175.881534,31.387 C175.582534,31.3436667 175.281368,31.322 174.978034,31.322 C174.596701,31.322 174.239201,31.361 173.905534,31.439 C173.571868,31.517 173.275034,31.6448333 173.015034,31.8225 C172.755034,32.0001667 172.547034,32.232 172.391034,32.518 C172.235034,32.804 172.148368,33.155 172.131034,33.571 L172.131034,33.571 L173.236034,33.571 C173.262034,33.077 173.431034,32.7411667 173.743034,32.5635 C174.055034,32.3858333 174.445034,32.297 174.913034,32.297 C175.086368,32.297 175.261868,32.31 175.439534,32.336 C175.617201,32.362 175.777534,32.414 175.920534,32.492 C176.063534,32.57 176.180534,32.6826667 176.271534,32.83 C176.362534,32.9773333 176.408034,33.1723333 176.408034,33.415 C176.408034,33.623 176.347368,33.7811667 176.226034,33.8895 C176.104701,33.9978333 175.940034,34.0801667 175.732034,34.1365 C175.524034,34.1928333 175.283534,34.2361667 175.010534,34.2665 C174.737534,34.2968333 174.449368,34.3423333 174.146034,34.403 C173.860034,34.455 173.580534,34.52 173.307534,34.598 C173.034534,34.676 172.791868,34.7908333 172.579534,34.9425 C172.367201,35.0941667 172.196034,35.2913333 172.066034,35.534 C171.936034,35.7766667 171.871034,36.0886667 171.871034,36.47 C171.871034,36.808 171.929534,37.0961667 172.046534,37.3345 C172.163534,37.5728333 172.321701,37.7656667 172.521034,37.913 C172.720368,38.0603333 172.956534,38.1686667 173.229534,38.238 C173.502534,38.3073333 173.790701,38.342 174.094034,38.342 C174.562034,38.342 174.997534,38.2618333 175.400534,38.1015 C175.803534,37.9411667 176.156701,37.679 176.460034,37.315 C176.460034,37.679 176.544534,37.9411667 176.713534,38.1015 C176.882534,38.2618333 177.110034,38.342 177.396034,38.342 Z M174.341034,37.38 C174.167701,37.38 174.003034,37.3626667 173.847034,37.328 C173.691034,37.2933333 173.554534,37.237 173.437534,37.159 C173.320534,37.081 173.225201,36.9791667 173.151534,36.8535 C173.077868,36.7278333 173.041034,36.574 173.041034,36.392 C173.041034,36.1146667 173.103868,35.8958333 173.229534,35.7355 C173.355201,35.5751667 173.517701,35.4516667 173.717034,35.365 C173.916368,35.2783333 174.141701,35.2155 174.393034,35.1765 C174.644368,35.1375 174.893534,35.1028333 175.140534,35.0725 C175.387534,35.0421667 175.623701,35.0031667 175.849034,34.9555 C176.074368,34.9078333 176.256368,34.832 176.395034,34.728 L176.395034,34.728 L176.395034,35.859 C176.395034,36.015 176.356034,36.1818333 176.278034,36.3595 C176.200034,36.5371667 176.078701,36.7018333 175.914034,36.8535 C175.749368,37.0051667 175.537034,37.1308333 175.277034,37.2305 C175.017034,37.3301667 174.705034,37.38 174.341034,37.38 Z M182.313172,38.199 L182.313172,37.224 L181.806172,37.224 C181.632839,37.224 181.492006,37.2175 181.383672,37.2045 C181.275339,37.1915 181.190839,37.1633333 181.130172,37.12 C181.069506,37.0766667 181.028339,37.016 181.006672,36.938 C180.985006,36.86 180.974172,36.756 180.974172,36.626 L180.974172,32.453 L182.313172,32.453 L182.313172,31.478 L180.974172,31.478 L180.974172,29.463 L179.869172,29.463 L179.869172,31.478 L178.725172,31.478 L178.725172,32.453 L179.869172,32.453 L179.869172,36.73 C179.869172,37.042 179.899506,37.2933333 179.960172,37.484 C180.020839,37.6746667 180.114006,37.822 180.239672,37.926 C180.365339,38.03 180.530006,38.1015 180.733672,38.1405 C180.937339,38.1795 181.182172,38.199 181.468172,38.199 L182.313172,38.199 Z M186.07331,38.342 C186.56731,38.342 186.99631,38.2445 187.36031,38.0495 C187.72431,37.8545 188.02331,37.549 188.25731,37.133 L188.28331,37.133 L188.28331,38.199 L189.32331,38.199 L189.32331,31.478 L188.21831,31.478 L188.21831,35.274 C188.21831,35.5773333 188.177144,35.8568333 188.09481,36.1125 C188.012477,36.3681667 187.888977,36.5913333 187.72431,36.782 C187.559644,36.9726667 187.35381,37.12 187.10681,37.224 C186.85981,37.328 186.56731,37.38 186.22931,37.38 C185.804644,37.38 185.470977,37.2586667 185.22831,37.016 C184.985644,36.7733333 184.86431,36.444 184.86431,36.028 L184.86431,31.478 L183.75931,31.478 L183.75931,35.898 C183.75931,36.262 183.796144,36.5935 183.86981,36.8925 C183.943477,37.1915 184.07131,37.4493333 184.25331,37.666 C184.43531,37.8826667 184.673644,38.0495 184.96831,38.1665 C185.262977,38.2835 185.63131,38.342 186.07331,38.342 Z M194.071448,38.342 C194.834115,38.342 195.466782,38.1513333 195.969448,37.77 C196.472115,37.3886667 196.797115,36.821 196.944448,36.067 L195.852448,36.067 C195.757115,36.509 195.559948,36.8383333 195.260948,37.055 C194.961948,37.2716667 194.578448,37.38 194.110448,37.38 C193.746448,37.38 193.430115,37.3193333 193.161448,37.198 C192.892782,37.0766667 192.671782,36.9141667 192.498448,36.7105 C192.325115,36.5068333 192.199448,36.2728333 192.121448,36.0085 C192.043448,35.7441667 192.008782,35.4646667 192.017448,35.17 L197.048448,35.17 C197.065782,34.7626667 197.028948,34.3336667 196.937948,33.883 C196.846948,33.4323333 196.682282,33.0163333 196.443948,32.635 C196.205615,32.2536667 195.889282,31.9395 195.494948,31.6925 C195.100615,31.4455 194.604448,31.322 194.006448,31.322 C193.547115,31.322 193.124615,31.4086667 192.738948,31.582 C192.353282,31.7553333 192.019615,31.998 191.737948,32.31 C191.456282,32.622 191.237448,32.9903333 191.081448,33.415 C190.925448,33.8396667 190.847448,34.3076667 190.847448,34.819 C190.864782,35.3303333 190.940615,35.8026667 191.074948,36.236 C191.209282,36.6693333 191.410782,37.042 191.679448,37.354 C191.948115,37.666 192.279615,37.9086667 192.673948,38.082 C193.068282,38.2553333 193.534115,38.342 194.071448,38.342 Z M195.878448,34.195 L192.017448,34.195 C192.034782,33.935 192.091115,33.6901667 192.186448,33.4605 C192.281782,33.2308333 192.411782,33.0293333 192.576448,32.856 C192.741115,32.6826667 192.938282,32.5461667 193.167948,32.4465 C193.397615,32.3468333 193.655448,32.297 193.941448,32.297 C194.218782,32.297 194.472282,32.3468333 194.701948,32.4465 C194.931615,32.5461667 195.130948,32.6805 195.299948,32.8495 C195.468948,33.0185 195.603282,33.22 195.702948,33.454 C195.802615,33.688 195.861115,33.935 195.878448,34.195 Z M200.834586,38.342 C201.172586,38.342 201.512753,38.3095 201.855086,38.2445 C202.19742,38.1795 202.505086,38.0646667 202.778086,37.9 C203.051086,37.7353333 203.272086,37.5186667 203.441086,37.25 C203.610086,36.9813333 203.694586,36.6433333 203.694586,36.236 C203.694586,35.9153333 203.631753,35.6466667 203.506086,35.43 C203.38042,35.2133333 203.215753,35.0335 203.012086,34.8905 C202.80842,34.7475 202.57442,34.6326667 202.310086,34.546 C202.045753,34.4593333 201.77492,34.3856667 201.497586,34.325 C201.237586,34.2643333 200.977586,34.2058333 200.717586,34.1495 C200.457586,34.0931667 200.223586,34.0238333 200.015586,33.9415 C199.807586,33.8591667 199.63642,33.7551667 199.502086,33.6295 C199.367753,33.5038333 199.300586,33.3456667 199.300586,33.155 C199.300586,32.9816667 199.34392,32.8408333 199.430586,32.7325 C199.517253,32.6241667 199.62992,32.5375 199.768586,32.4725 C199.907253,32.4075 200.061086,32.362 200.230086,32.336 C200.399086,32.31 200.56592,32.297 200.730586,32.297 C200.912586,32.297 201.09242,32.3165 201.270086,32.3555 C201.447753,32.3945 201.610253,32.4573333 201.757586,32.544 C201.90492,32.6306667 202.026253,32.7455 202.121586,32.8885 C202.21692,33.0315 202.273253,33.2113333 202.290586,33.428 L203.395586,33.428 C203.369586,33.0206667 203.28292,32.6805 203.135586,32.4075 C202.988253,32.1345 202.791086,31.9178333 202.544086,31.7575 C202.297086,31.5971667 202.013253,31.4845 201.692586,31.4195 C201.37192,31.3545 201.02092,31.322 200.639586,31.322 C200.34492,31.322 200.048086,31.3588333 199.749086,31.4325 C199.450086,31.5061667 199.18142,31.6188333 198.943086,31.7705 C198.704753,31.9221667 198.509753,32.1193333 198.358086,32.362 C198.20642,32.6046667 198.130586,32.895 198.130586,33.233 C198.130586,33.6663333 198.23892,34.0043333 198.455586,34.247 C198.672253,34.4896667 198.943086,34.6781667 199.268086,34.8125 C199.593086,34.9468333 199.946253,35.0508333 200.327586,35.1245 C200.70892,35.1981667 201.062086,35.2805 201.387086,35.3715 C201.712086,35.4625 201.98292,35.5816667 202.199586,35.729 C202.416253,35.8763333 202.524586,36.093 202.524586,36.379 C202.524586,36.587 202.472586,36.7581667 202.368586,36.8925 C202.264586,37.0268333 202.13242,37.1286667 201.972086,37.198 C201.811753,37.2673333 201.636253,37.315 201.445586,37.341 C201.25492,37.367 201.07292,37.38 200.899586,37.38 C200.674253,37.38 200.45542,37.3583333 200.243086,37.315 C200.030753,37.2716667 199.840086,37.2001667 199.671086,37.1005 C199.502086,37.0008333 199.365586,36.8665 199.261586,36.6975 C199.157586,36.5285 199.101253,36.3226667 199.092586,36.08 L197.987586,36.08 C198.00492,36.496 198.091586,36.8491667 198.247586,37.1395 C198.403586,37.4298333 198.611586,37.6638333 198.871586,37.8415 C199.131586,38.0191667 199.430586,38.147 199.768586,38.225 C200.106586,38.303 200.46192,38.342 200.834586,38.342 Z" id="WholesalePremiumStatues" fill="#8F9192"></path>
            </g>
        </g>
    </g>
</svg>